<svg height="100" viewBox="0 0 100 100" width="100" xmlns="http://www.w3.org/2000/svg"><g stroke="#121c63" stroke-linecap="round" stroke-linejoin="round" stroke-miterlimit="10"><path d="m69.421 67.705h-31.636c-.259 0-.468-.21-.468-.468v-24.669c0-.259.21-.468.468-.468h31.636c.259 0 .468.21.468.468v24.669c.001.259-.209.468-.468.468z" fill="#ffff5f" stroke-width="1.5"/><path d="m36.943 51.372h-6.833v-19.077" fill="none" stroke-width="1.5"/><path d="m34.305 49.207h3.012v4.194h-3.012z" fill="#121c63" stroke-width="1.5"/><circle cx="45.826" cy="56.372" fill="#121c63" r="1.481" stroke-width=".5"/><path d="m45.826 52.675v-1.799" fill="none" stroke-width="1.2"/><path d="m43.211 53.758-1.272-1.272" fill="none" stroke-width="1.2"/><path d="m42.129 56.372h-1.8" fill="none" stroke-width="1.2"/><path d="m45.826 60.069v1.799" fill="none" stroke-width="1.2"/><path d="m43.211 58.986-1.272 1.273" fill="none" stroke-width="1.2"/></g><path d="m54.737 51.505-.584.584c-.609.609-.609 1.599 0 2.208s1.599.609 2.208 0l.584-.584z" fill="#121c63"/><path d="m55.986 51.574-.86.859" style="fill:none;stroke:#121c63;stroke-width:.6747;stroke-linecap:round;stroke-linejoin:round;stroke-miterlimit:10"/><path d="m56.876 52.464-.859.859" style="fill:none;stroke:#121c63;stroke-width:.6747;stroke-linecap:round;stroke-linejoin:round;stroke-miterlimit:10"/><path d="m51.141 62.045v-4.736l4.06-4.06" style="fill:none;stroke:#121c63;stroke-width:1.2;stroke-linecap:round;stroke-linejoin:round;stroke-miterlimit:10"/><path d="m45.826 56.372 10.856-10.084 9.565 8.942v6.518" style="fill:none;stroke:#121c63;stroke-width:1.2;stroke-linecap:round;stroke-linejoin:round;stroke-miterlimit:10"/></svg>