<svg height="100" viewBox="0 0 100 100" width="100" xmlns="http://www.w3.org/2000/svg"><path d="m26.397 45.357h35.436c2.875 0 5.311 2.116 5.714 4.963l2.889 20.444h7.7l.245-1.811-5.947-27.351h-44.867z" fill="#ffff5f"/><g stroke="#121c63" stroke-width="1.5"><path d="m25.69 48.85h48.62" fill="#fff" stroke-linecap="round" stroke-linejoin="round" stroke-miterlimit="10"/><path d="m23.718 58.589h52.564" fill="#fff" stroke-linecap="round" stroke-linejoin="round" stroke-miterlimit="10"/><circle cx="50" cy="24.333" fill="none" r="2.5" stroke-linecap="round" stroke-linejoin="round" stroke-miterlimit="10"/><path d="m50 18.093v-3.036" fill="none" stroke-linecap="round" stroke-linejoin="round" stroke-miterlimit="10"/><path d="m45.588 19.921-2.147-2.147" fill="none" stroke-linecap="round" stroke-linejoin="round" stroke-miterlimit="10"/><path d="m43.761 24.333h-3.037" fill="none" stroke-linecap="round" stroke-linejoin="round" stroke-miterlimit="10"/><path d="m50 30.572v3.036" fill="none" stroke-linecap="round" stroke-linejoin="round" stroke-miterlimit="10"/><path d="m45.588 28.744-2.147 2.147" fill="none" stroke-linecap="round" stroke-linejoin="round" stroke-miterlimit="10"/><path d="m54.412 19.921 2.147-2.147" fill="none" stroke-linecap="round" stroke-linejoin="round" stroke-miterlimit="10"/><path d="m56.239 24.333h3.037" fill="none" stroke-linecap="round" stroke-linejoin="round" stroke-miterlimit="10"/><path d="m54.412 28.744 2.147 2.147" fill="none" stroke-linecap="round" stroke-linejoin="round" stroke-miterlimit="10"/><path d="m72.433 41.601h-44.866c-.238 0-.443.168-.49.401l-5.702 28.163c-.063.31.174.599.49.599h56.271c.316 0 .553-.289.49-.599l-5.702-28.163c-.048-.233-.253-.401-.491-.401z" fill="none" stroke-linecap="round" stroke-linejoin="round" stroke-miterlimit="10"/><path d="m40.415 70.764 1.973-29.163" fill="none" stroke-linecap="round" stroke-linejoin="round" stroke-miterlimit="10"/><path d="m59.585 70.764-1.973-29.163" fill="none" stroke-linecap="round" stroke-linejoin="round" stroke-miterlimit="10"/><path d="m50 70.764v2.071c0 1.665-1.35 3.014-3.014 3.014h-14.855c-1.665 0-3.014 1.35-3.014 3.014 0 1.665 1.35 3.014 3.014 3.014h24.649" fill="none" stroke-linecap="round" stroke-linejoin="round" stroke-miterlimit="10"/></g><path d="m62.267 78.811h-2.421c-1.691 0-3.066 1.376-3.066 3.066 0 1.691 1.376 3.066 3.066 3.066h2.421z" fill="#fff"/><path d="m65.031 80.408h-2.524" fill="none" stroke="#fff" stroke-linecap="round" stroke-linejoin="round" stroke-miterlimit="10"/><path d="m65.031 83.346h-2.764" fill="none" stroke="#fff" stroke-linecap="round" stroke-linejoin="round" stroke-miterlimit="10"/><path d="m62.267 78.811h-2.421c-1.691 0-3.066 1.376-3.066 3.066 0 1.691 1.376 3.066 3.066 3.066h2.421z" style="fill:none;stroke:#121c63;stroke-width:1.5;stroke-linecap:round;stroke-linejoin:round;stroke-miterlimit:10"/><path d="m65.031 80.408h-2.524" style="fill:none;stroke:#121c63;stroke-width:1.5;stroke-linecap:round;stroke-linejoin:round;stroke-miterlimit:10"/><path d="m65.031 83.346h-2.764" style="fill:none;stroke:#121c63;stroke-width:1.5;stroke-linecap:round;stroke-linejoin:round;stroke-miterlimit:10"/></svg>