<svg height="120" viewBox="0 0 120 120" width="120" xmlns="http://www.w3.org/2000/svg">
    <g fill="#fff">
        <path d="m30.732 45.624c3.245 0 4.914 1.941 4.914 5.339v.667h-3.155v-.879c0-1.517-.606-2.093-1.668-2.093s-1.669.576-1.669 2.093c0 1.547.668 2.7 2.852 4.611 2.791 2.457 3.671 4.216 3.671 6.643 0 3.397-1.699 5.339-4.975 5.339s-4.976-1.941-4.976-5.339v-1.305h3.155v1.517c0 1.517.667 2.063 1.729 2.063s1.729-.546 1.729-2.063c0-1.547-.667-2.7-2.852-4.611-2.791-2.457-3.67-4.217-3.67-6.644.001-3.397 1.669-5.338 4.915-5.338z"/>
        <path d="m47.263 59.183v2.821c0 3.397-1.698 5.339-4.975 5.339s-4.975-1.941-4.975-5.339v-11.041c0-3.397 1.698-5.339 4.975-5.339s4.975 1.941 4.975 5.339v2.063h-3.154v-2.275c0-1.517-.667-2.093-1.729-2.093s-1.729.576-1.729 2.093v11.466c0 1.517.667 2.063 1.729 2.063s1.729-.546 1.729-2.063v-3.034z"/>
        <path d="m52.631 67.101h-3.337v-21.234h3.337v9.1h3.792v-9.1h3.397v21.234h-3.397v-9.1h-3.792z"/>
        <path d="m62.248 45.867h3.336v18.2h5.491v3.034h-8.827z"/>
        <path d="m83.33 67.101h-3.367l-.576-3.853h-4.096l-.576 3.853h-3.063l3.397-21.234h4.884zm-7.615-6.734h3.216l-1.578-10.738h-.061z"/>
        <path d="m88.061 45.867v16.38c0 1.517.667 2.063 1.729 2.063s1.729-.546 1.729-2.063v-16.38h3.155v16.168c0 3.397-1.699 5.339-4.976 5.339-3.275 0-4.975-1.941-4.975-5.339v-16.168z"/>
        <path d="m30.583 97.745h-4.073v-25.913h4.072v11.105h4.627v-11.105h4.146v25.913h-4.145v-11.106h-4.627z"/>
        <path d="m59.195 97.745h-4.109l-.703-4.701h-4.997l-.704 4.701h-3.738l4.146-25.913h5.96zm-9.292-8.218h3.924l-1.925-13.104h-.073z"/>
        <path d="m68.669 71.832v19.99c0 1.851.814 2.517 2.11 2.517s2.11-.666 2.11-2.517v-19.99h3.85v19.73c0 4.146-2.073 6.515-6.071 6.515s-6.07-2.369-6.07-6.515v-19.73z"/>
        <path d="m88.693 71.536c3.961 0 5.997 2.369 5.997 6.515v.814h-3.85v-1.074c0-1.851-.74-2.554-2.036-2.554s-2.036.703-2.036 2.554c0 1.888.814 3.294 3.479 5.627 3.406 2.998 4.479 5.145 4.479 8.107 0 4.146-2.073 6.515-6.071 6.515-3.997 0-6.07-2.369-6.07-6.515v-1.592h3.85v1.851c0 1.851.814 2.517 2.11 2.517 1.295 0 2.109-.666 2.109-2.517 0-1.888-.814-3.294-3.479-5.626-3.405-2.999-4.479-5.146-4.479-8.107.001-4.145 2.036-6.515 5.997-6.515z"/>
    </g>
    <path d="m50.49 41.188v-8.334l7.144-7.144"
          style="fill:none;stroke:#fff;stroke-width:2;stroke-linecap:round;stroke-linejoin:round;stroke-miterlimit:10"/>
    <path d="m41.137 31.205 19.103-17.743 16.831 15.733v11.47"
          style="fill:none;stroke:#fff;stroke-width:2;stroke-linecap:round;stroke-linejoin:round;stroke-miterlimit:10"/>
    <circle cx="41.137" cy="31.205" fill="#fff" r="2.607"/>
    <path d="m41.137 24.7v-3.166" fill="none" stroke="#fff" stroke-linecap="round" stroke-linejoin="round"
          stroke-miterlimit="10"/>
    <path d="m36.537 26.605-2.238-2.239" fill="none" stroke="#fff" stroke-linecap="round" stroke-linejoin="round"
          stroke-miterlimit="10"/>
    <path d="m34.632 31.205h-3.166" fill="none" stroke="#fff" stroke-linecap="round" stroke-linejoin="round"
          stroke-miterlimit="10"/>
    <path d="m41.137 37.711v3.166" fill="none" stroke="#fff" stroke-linecap="round" stroke-linejoin="round"
          stroke-miterlimit="10"/>
    <path d="m36.537 35.805-2.238 2.239" fill="none" stroke="#fff" stroke-linecap="round" stroke-linejoin="round"
          stroke-miterlimit="10"/>
    <path d="m56.818 22.641-1.027 1.027c-1.071 1.071-1.071 2.814 0 3.885s2.814 1.071 3.885 0l1.027-1.027z" fill="#fff"/>
    <path d="m59.016 22.762-1.513 1.512" fill="none" stroke="#fff" stroke-linecap="round" stroke-linejoin="round"
          stroke-miterlimit="10"/>
    <path d="m60.582 24.329-1.512 1.512" fill="none" stroke="#fff" stroke-linecap="round" stroke-linejoin="round"
          stroke-miterlimit="10"/>
</svg>
