<svg height="100" viewBox="0 0 100 100" width="100" xmlns="http://www.w3.org/2000/svg"><path d="m78.953 54.408-.022 10.209h-3.421l.011-6.776c0-4.629-1.834-9.068-5.11-12.344l-8.621-8.621c-3.276-3.265-7.715-5.11-12.333-5.11h-12.948c-.324 0-.637.034-.939.101.436-2.013 2.225-3.533 4.372-3.533h12.937c4.629 0 9.068 1.845 12.344 5.121l8.621 8.621c3.276 3.264 5.109 7.703 5.109 12.332z" fill="#ffff5f"/><path d="m14.444 37.931h2.707c1.89 0 3.428 1.538 3.428 3.428s-1.538 3.428-3.428 3.428h-2.707z" fill="#fff"/><g stroke-linecap="round" stroke-linejoin="round" stroke-miterlimit="10"><g fill="none"><path d="m11.354 39.717h2.821" stroke="#fff"/><path d="m11.354 43.002h3.09" stroke="#fff"/><path d="m14.444 37.931h2.707c1.89 0 3.428 1.538 3.428 3.428s-1.538 3.428-3.428 3.428h-2.707z" stroke="#121c63" stroke-width="1.5"/><path d="m11.354 39.717h2.821" stroke="#121c63" stroke-width="1.5"/><path d="m11.354 43.002h3.09" stroke="#121c63" stroke-width="1.5"/><path d="m78.933 64.613h-43.464v-31.803c0-2.47 2.002-4.473 4.473-4.473h12.943c4.628 0 9.067 1.839 12.34 5.111l8.62 8.62c3.273 3.273 5.111 7.711 5.111 12.34z" stroke="#121c63" stroke-width="1.5"/></g><circle cx="74.204" cy="64.613" fill="#fff" r="7.055" stroke="#121c63" stroke-width="1.5"/><circle cx="40.147" cy="64.613" fill="#fff" r="7.055" stroke="#121c63" stroke-width="1.5"/></g><path d="m81.261 64.602c0 2.997-1.856 5.546-4.484 6.575.313-.805.492-1.677.492-2.583 0-3.891-3.153-7.055-7.055-7.055-.906 0-1.778.168-2.572.492 1.029-2.616 3.578-4.473 6.563-4.473 3.891 0 7.056 3.153 7.056 7.044z" fill="#ffff5f"/><path d="m47.202 64.602c0 2.997-1.856 5.546-4.484 6.575.313-.805.492-1.677.492-2.583 0-3.891-3.153-7.055-7.055-7.055-.906 0-1.778.168-2.572.492 1.029-2.616 3.578-4.473 6.563-4.473 3.892 0 7.056 3.153 7.056 7.044z" fill="#ffff5f"/><g style="stroke-linecap:round;stroke-linejoin:round;stroke-miterlimit:10;fill:none;stroke:#121c63;stroke-width:1.5"><circle cx="74.204" cy="64.613" r="7.055"/><circle cx="40.147" cy="64.613" r="7.055"/><path d="m51.721 33.109v15.704c0 .309.25.559.559.559h17.891c1.448 0 2.199-1.727 1.212-2.786l-10.657-11.44c-1.542-1.656-3.703-2.596-5.966-2.596h-2.48c-.308 0-.559.251-.559.559z"/><circle cx="41.747" cy="50.05" r="2.385"/><path d="m20.579 41.36c1.063 0 4.253-.89 4.253 2.406v10.472c0 1.381 1.119 2.5 2.5 2.5s2.5-1.119 2.5-2.5v-1.93c0-1.235 1.001-2.236 2.236-2.236h9.678"/></g></svg>