<svg height="100" viewBox="0 0 100 100" width="100" xmlns="http://www.w3.org/2000/svg"><path d="m31.856 32.42h26.743v40.157h5.745l.5-.5v-44.154l-.5-.5h-31.988z" fill="#ffff5f"/><g stroke="#121c63" stroke-linecap="round" stroke-linejoin="round" stroke-miterlimit="10" stroke-width="1.5"><path d="m64.344 72.577h-31.988c-.276 0-.5-.224-.5-.5v-44.154c0-.276.224-.5.5-.5h31.988c.276 0 .5.224.5.5v44.153c0 .277-.224.501-.5.501z" fill="none"/><path d="m58.4 48.906h-20.099c-.125 0-.226-.101-.226-.226v-16.014c0-.125.101-.226.226-.226h20.099c.125 0 .226.101.226.226v16.015c-.001.124-.102.225-.226.225z" fill="none"/><path d="m38.075 53.299h20.55" fill="none"/><path d="m55.028 41.581h-13.356c-.053 0-.096-.043-.096-.096v-5.543c0-.053.043-.096.096-.096h13.356c.053 0 .096.043.096.096v5.543c0 .053-.043.096-.096.096z" fill="none"/><circle cx="41.626" cy="45.176" fill="none" r=".058"/><circle cx="46.109" cy="45.176" fill="none" r=".058"/><circle cx="50.592" cy="45.176" fill="none" r=".058"/><circle cx="55.074" cy="45.176" fill="none" r=".058"/><path d="m64.844 35.256h3.299v5.015h-3.299z" fill="#ffff5f"/><path d="m64.844 44.526h3.299v5.015h-3.299z" fill="#ffff5f"/><path d="m47.148 56.972h3.592l-1.347 3.442h4.191l-5.538 9.054.749-6.211h-4.186z" fill="#fff"/></g></svg>