<svg height="100" viewBox="0 0 100 100" width="100" xmlns="http://www.w3.org/2000/svg"><path d="m21.469 37.053h41.358c3.848 0 6.968 3.12 6.968 6.968v24.463h8.006l.697-.697v-35.606l-.697-.697h-56.332z" fill="#ffff5f"/><g stroke="#121c63" stroke-linecap="round" stroke-linejoin="round" stroke-miterlimit="10" stroke-width="1.5"><path d="m21.71 31.484h56.82v37.031h-56.82z" fill="none"/><path d="m77.981 72.368h-55.721c-.304 0-.55-.246-.55-.55v-43.636c0-.304.246-.55.55-.55h55.721c.304 0 .55.246.55.55v43.636c0 .304-.247.55-.55.55z" fill="none"/><path d="m58.204 40.535h14.582" fill="none"/><path d="m58.204 45.285h14.582" fill="none"/><path d="m58.204 50.035h14.582" fill="none"/><path d="m58.204 54.785h14.582" fill="none"/><path d="m58.204 59.536h14.582" fill="none"/><circle cx="39.456" cy="49.774" fill="#fff" r="12.476"/><circle cx="39.456" cy="49.774" fill="#fff" r="3.099"/><g fill="none"><path d="m39.456 46.675v-9.377"/><path d="m37.265 47.583-6.63-6.63"/><path d="m36.358 49.774h-9.377"/><path d="m39.456 52.873v9.377"/><path d="m37.265 51.965-6.63 6.631"/><path d="m41.647 51.965 6.631 6.631"/><path d="m42.555 49.774h9.377"/><path d="m41.647 47.583 6.631-6.63"/></g></g></svg>